# xmcd
#
# Track frame offsets: 
#        300
#        20662
#        33624
#        55669
#        81354
#        97022
#        118254
#        142535
#        161522
#        182362
#
# Disc length: 2653 seconds
#
# Revision: 0
# Processed by: cddbd v1.5.2PL0 Copyright (c) Steve Scherf et al.
# Submitted via: ExactAudioCopy v0.95b3
#
DISCID=7d0a590a
DTITLE=Paul Pena - New Train
DYEAR=1900
DGENRE=Blues
TTITLE0=Gonna Move
TTITLE1=New Train
TTITLE2=Jet Airliner
TTITLE3=Wait On What You Want
TTITLE4=Venutian Lady
TTITLE5=Cosmic Lady
TTITLE6=Let's Move And Groove Together
TTITLE7=Indian Boy
TTITLE8=A Bit Of All Right
TTITLE9=Taking Your Love Down
EXTD=
EXTT0=
EXTT1=
EXTT2=
EXTT3=
EXTT4=
EXTT5=
EXTT6=
EXTT7=
EXTT8=
EXTT9=
PLAYORDER=
